# xmcd
#
# Track frame offsets: 
#        150
#        18702
#        41476
#        59983
#        76746
#        96698
#        118608
#        136494
#        156705
#        170733
#        191009
#        206661
#        220476
#        237126
#        257143
#
# Disc length: 3645 seconds
#
# Revision: 0
# Processed by: cddbd v1.5.2PL0 Copyright (c) Steve Scherf et al.
# Submitted via: ExactAudioCopyFreeDBPlugin 1.0
#
DISCID=ee0e3b0f
DTITLE=李健 - 音乐诗人李健
DYEAR=1900
DGENRE=
TTITLE0=春风十里不如你
TTITLE1=假如爱有天意
TTITLE2=贝加尔湖畔
TTITLE3=依然在路上
TTITLE4=风吹麦浪
TTITLE5=传奇
TTITLE6=向往
TTITLE7=绽放
TTITLE8=父亲
TTITLE9=深海之寻
TTITLE10=当有天老去
TTITLE11=明天还会在路上
TTITLE12=今生今世遥不可及
TTITLE13=美若黎明
TTITLE14=似水流年
EXTD=
EXTT0=
EXTT1=
EXTT2=
EXTT3=
EXTT4=
EXTT5=
EXTT6=
EXTT7=
EXTT8=
EXTT9=
EXTT10=
EXTT11=
EXTT12=
EXTT13=
EXTT14=
PLAYORDER=
